<svg width="33" height="32" viewBox="0 0 33 32" fill="none" xmlns="http://www.w3.org/2000/svg">
<path d="M30.5832 13.9169H7.31238L17.479 3.75021C18.2915 2.93771 18.2915 1.60437 17.479 0.791875C17.2863 0.598743 17.0574 0.445519 16.8054 0.340974C16.5533 0.236429 16.2832 0.182617 16.0103 0.182617C15.7374 0.182617 15.4673 0.236429 15.2153 0.340974C14.9632 0.445519 14.7343 0.598743 14.5416 0.791875L0.812384 14.521C0.619251 14.7138 0.466027 14.9427 0.361483 15.1947C0.256938 15.4468 0.203125 15.7169 0.203125 15.9898C0.203125 16.2626 0.256938 16.5328 0.361483 16.7848C0.466027 17.0369 0.619251 17.2658 0.812384 17.4585L14.5416 31.1877C14.7344 31.3806 14.9634 31.5336 15.2154 31.638C15.4674 31.7424 15.7375 31.7961 16.0103 31.7961C16.2831 31.7961 16.5532 31.7424 16.8052 31.638C17.0572 31.5336 17.2862 31.3806 17.479 31.1877C17.6719 30.9948 17.8249 30.7658 17.9293 30.5138C18.0337 30.2618 18.0874 29.9917 18.0874 29.719C18.0874 29.4462 18.0337 29.1761 17.9293 28.9241C17.8249 28.6721 17.6719 28.4431 17.479 28.2502L7.31238 18.0835H30.5832C31.729 18.0835 32.6665 17.146 32.6665 16.0002C32.6665 14.8544 31.729 13.9169 30.5832 13.9169Z" fill="#0A7ACC"/>
</svg>
