<svg width="168" height="168" viewBox="0 0 168 168" fill="none" xmlns="http://www.w3.org/2000/svg">
<path d="M84.0001 0.666992C38.1668 0.666992 0.666748 38.167 0.666748 84.0003C0.666748 129.834 38.1668 167.334 84.0001 167.334C129.833 167.334 167.333 129.834 167.333 84.0003C167.333 38.167 129.833 0.666992 84.0001 0.666992ZM84.0001 150.667C47.2501 150.667 17.3334 120.75 17.3334 84.0003C17.3334 47.2503 47.2501 17.3337 84.0001 17.3337C120.75 17.3337 150.667 47.2503 150.667 84.0003C150.667 120.75 120.75 150.667 84.0001 150.667ZM122.25 47.167L67.3334 102.084L45.7501 80.5837L34.0001 92.3337L67.3334 125.667L134 59.0003L122.25 47.167Z" fill="#14AE5C"/>
</svg>
