<svg width="17" height="16" viewBox="0 0 17 16" fill="none" xmlns="http://www.w3.org/2000/svg">
<path d="M15.7727 2.90909H12.1364V0.727273C12.1364 0.534388 12.0597 0.349403 11.9234 0.213013C11.787 0.0766231 11.602 0 11.4091 0H5.59091C5.39802 0 5.21304 0.0766231 5.07665 0.213013C4.94026 0.349403 4.86364 0.534388 4.86364 0.727273V2.90909H1.22727C1.03439 2.90909 0.849403 2.98571 0.713013 3.1221C0.576623 3.25849 0.5 3.44348 0.5 3.63636C0.5 3.82925 0.576623 4.01423 0.713013 4.15062C0.849403 4.28701 1.03439 4.36364 1.22727 4.36364H1.99891L2.68182 15.3185C2.69349 15.5034 2.77523 15.6768 2.91038 15.8034C3.04552 15.9301 3.22389 16.0004 3.40909 16H13.5909C13.7761 16.0004 13.9545 15.9301 14.0896 15.8034C14.2248 15.6768 14.3065 15.5034 14.3182 15.3185L15.0011 4.36364H15.7727C15.9656 4.36364 16.1506 4.28701 16.287 4.15062C16.4234 4.01423 16.5 3.82925 16.5 3.63636C16.5 3.44348 16.4234 3.25849 16.287 3.1221C16.1506 2.98571 15.9656 2.90909 15.7727 2.90909ZM6.31818 1.45455H10.6818V2.90909H6.31818V1.45455ZM12.908 14.5455H4.092L3.45564 4.36364H13.5444L12.908 14.5455ZM6.31818 7.27273V11.6364C6.31818 11.8292 6.24156 12.0142 6.10517 12.1506C5.96878 12.287 5.78379 12.3636 5.59091 12.3636C5.39802 12.3636 5.21304 12.287 5.07665 12.1506C4.94026 12.0142 4.86364 11.8292 4.86364 11.6364V7.27273C4.86364 7.07984 4.94026 6.89486 5.07665 6.75847C5.21304 6.62208 5.39802 6.54545 5.59091 6.54545C5.78379 6.54545 5.96878 6.62208 6.10517 6.75847C6.24156 6.89486 6.31818 7.07984 6.31818 7.27273ZM9.22727 7.27273V11.6364C9.22727 11.8292 9.15065 12.0142 9.01426 12.1506C8.87787 12.287 8.69289 12.3636 8.5 12.3636C8.30712 12.3636 8.12213 12.287 7.98574 12.1506C7.84935 12.0142 7.77273 11.8292 7.77273 11.6364V7.27273C7.77273 7.07984 7.84935 6.89486 7.98574 6.75847C8.12213 6.62208 8.30712 6.54545 8.5 6.54545C8.69289 6.54545 8.87787 6.62208 9.01426 6.75847C9.15065 6.89486 9.22727 7.07984 9.22727 7.27273ZM11.4091 6.54545C11.602 6.54545 11.787 6.62208 11.9234 6.75847C12.0597 6.89486 12.1364 7.07984 12.1364 7.27273V11.6364C12.1364 11.8292 12.0597 12.0142 11.9234 12.1506C11.787 12.287 11.602 12.3636 11.4091 12.3636C11.2162 12.3636 11.0312 12.287 10.8948 12.1506C10.7584 12.0142 10.6818 11.8292 10.6818 11.6364V7.27273C10.6818 7.07984 10.7584 6.89486 10.8948 6.75847C11.0312 6.62208 11.2162 6.54545 11.4091 6.54545Z" fill="#999999"/>
</svg>
