<svg width="17" height="16" viewBox="0 0 17 16" fill="none" xmlns="http://www.w3.org/2000/svg">
<path d="M16.2654 3.11426L13.3852 0.234232C13.2352 0.0842531 13.0317 0 12.8196 0C12.6074 0 12.404 0.0842531 12.2539 0.234232L2.17318 10.3143C2.08523 10.402 2.01917 10.5092 1.98037 10.6271L0.540263 14.9472C0.500225 15.0674 0.48931 15.1954 0.508417 15.3206C0.527523 15.4459 0.576106 15.5648 0.650164 15.6676C0.724222 15.7704 0.821638 15.8541 0.934392 15.9119C1.04715 15.9697 1.17202 15.9999 1.29872 16C1.38462 15.9999 1.46996 15.9861 1.55154 15.9592L5.87186 14.5192C5.98958 14.48 6.09646 14.4136 6.18388 14.3256L16.2646 4.24547C16.4147 4.09556 16.4991 3.89217 16.4993 3.68003C16.4994 3.4679 16.4153 3.26439 16.2654 3.11426ZM5.18701 13.0608L2.56361 13.9352L3.43808 11.3119L12.8196 1.93105L14.5685 3.67987L5.18701 13.0608Z" fill="#FF9090"/>
</svg>
