<svg width="17" height="15" viewBox="0 0 17 15" fill="none" xmlns="http://www.w3.org/2000/svg">
<path fill-rule="evenodd" clip-rule="evenodd" d="M6.66634 1.66666C5.74586 1.66666 4.99967 2.41286 4.99967 3.33333C4.99967 4.2538 5.74586 4.99999 6.66634 4.99999C7.58681 4.99999 8.333 4.2538 8.333 3.33333C8.333 2.41286 7.58681 1.66666 6.66634 1.66666ZM3.33301 3.33333C3.33301 1.49238 4.82539 0 6.66634 0C8.50728 0 9.99967 1.49238 9.99967 3.33333C9.99967 5.17428 8.50728 6.66666 6.66634 6.66666C4.82539 6.66666 3.33301 5.17428 3.33301 3.33333Z" fill="#624BFF"/>
<path fill-rule="evenodd" clip-rule="evenodd" d="M4.16666 10.0006C2.78595 10.0006 1.66666 11.1199 1.66666 12.5006V14.1673C1.66666 14.6275 1.29357 15.0006 0.833332 15.0006C0.373096 15.0006 0 14.6275 0 14.1673V12.5006C0 10.1995 1.86548 8.33398 4.16666 8.33398H9.16666C11.4678 8.33398 13.3333 10.1995 13.3333 12.5006V14.1673C13.3333 14.6275 12.9602 15.0006 12.5 15.0006C12.0397 15.0006 11.6667 14.6275 11.6667 14.1673V12.5006C11.6667 11.1199 10.5474 10.0006 9.16666 10.0006H4.16666Z" fill="#624BFF"/>
<path d="M15 14.1677C15 14.6279 15.3731 15.001 15.8333 15.001C16.2935 15.001 16.6666 14.6279 16.6666 14.1677V12.501C16.6666 10.2842 14.9356 8.47182 12.7515 8.3418C13.6282 9.11826 14.299 10.1221 14.6713 11.261C14.8804 11.6264 15 12.0498 15 12.501V14.1677Z" fill="#624BFF"/>
<path d="M10.4165 6.64054C12.0609 6.43561 13.3334 5.03289 13.3334 3.33296C13.3334 1.63304 12.0609 0.230315 10.4165 0.0253906C11.1946 0.906843 11.6668 2.06477 11.6668 3.33296C11.6668 4.60116 11.1946 5.75909 10.4165 6.64054Z" fill="#624BFF"/>
</svg>
