<svg width="18" height="17" viewBox="0 0 18 17" fill="none" xmlns="http://www.w3.org/2000/svg">
<path d="M1.43457 3.30987C1.43457 3.91003 1.61534 4.49672 1.95401 4.99574C2.29269 5.49476 2.77406 5.88369 3.33725 6.11337C3.90045 6.34304 4.52018 6.40313 5.11806 6.28605C5.71595 6.16896 6.26514 5.87995 6.69619 5.45557C7.12724 5.03119 7.42079 4.4905 7.53972 3.90187C7.65865 3.31324 7.59761 2.7031 7.36433 2.14863C7.13104 1.59415 6.73599 1.12023 6.22913 0.786793C5.72226 0.45336 5.12636 0.275391 4.51676 0.275391C3.69931 0.275391 2.91534 0.595094 2.33732 1.16417C1.7593 1.73324 1.43457 2.50508 1.43457 3.30987ZM5.91775 3.30987C5.91775 3.58267 5.83558 3.84935 5.68164 4.07617C5.5277 4.303 5.30889 4.47979 5.05289 4.58419C4.7969 4.68858 4.5152 4.7159 4.24344 4.66268C3.97167 4.60946 3.72204 4.47809 3.5261 4.28519C3.33017 4.09229 3.19674 3.84652 3.14268 3.57896C3.08862 3.3114 3.11637 3.03407 3.22241 2.78203C3.32844 2.53 3.50801 2.31458 3.73841 2.16302C3.9688 2.01146 4.23967 1.93056 4.51676 1.93056C4.88832 1.93056 5.24467 2.07588 5.50741 2.33455C5.77015 2.59322 5.91775 2.94406 5.91775 3.30987Z" fill="#637381"/>
<path d="M16.5657 13.0345C16.5657 12.4343 16.385 11.8476 16.0463 11.3486C15.7076 10.8496 15.2263 10.4607 14.6631 10.231C14.0999 10.0013 13.4801 9.94122 12.8823 10.0583C12.2844 10.1754 11.7352 10.4644 11.3041 10.8888C10.8731 11.3132 10.5795 11.8539 10.4606 12.4425C10.3417 13.0311 10.4027 13.6412 10.636 14.1957C10.8693 14.7502 11.2643 15.2241 11.7712 15.5576C12.278 15.891 12.874 16.069 13.4836 16.069C14.301 16.069 15.085 15.7493 15.663 15.1802C16.241 14.6111 16.5657 13.8393 16.5657 13.0345ZM12.0826 13.0345C12.0826 12.7617 12.1647 12.495 12.3187 12.2682C12.4726 12.0414 12.6914 11.8646 12.9474 11.7602C13.2034 11.6558 13.4851 11.6285 13.7569 11.6817C14.0286 11.7349 14.2783 11.8663 14.4742 12.0592C14.6701 12.2521 14.8036 12.4978 14.8576 12.7654C14.9117 13.033 14.8839 13.3103 14.7779 13.5623C14.6719 13.8144 14.4923 14.0298 14.2619 14.1813C14.0315 14.3329 13.7606 14.4138 13.4836 14.4138C13.112 14.4138 12.7556 14.2685 12.4929 14.0098C12.2302 13.7511 12.0826 13.4003 12.0826 13.0345Z" fill="#637381"/>
<path d="M2.83561 11.1698V14.1381C2.83561 14.7234 3.07178 15.2847 3.49216 15.6986C3.91254 16.1125 4.48269 16.345 5.0772 16.345H8.99998V14.6898H5.0772C4.92857 14.6898 4.78603 14.6317 4.68094 14.5282C4.57584 14.4247 4.5168 14.2844 4.5168 14.1381V11.1698L6.16437 12.7919L7.35241 11.6222L4.27023 8.58773C4.11262 8.43275 3.89897 8.3457 3.67621 8.3457C3.45345 8.3457 3.2398 8.43275 3.08219 8.58773L0 11.6222L1.18804 12.7919L2.83561 11.1698Z" fill="#637381"/>
<path d="M15.1644 5.17517V2.2069C15.1644 1.62159 14.9282 1.06026 14.5078 0.646385C14.0874 0.232511 13.5173 0 12.9228 0H9V1.65517H12.9228C13.0714 1.65517 13.2139 1.7133 13.319 1.81677C13.4241 1.92024 13.4832 2.06057 13.4832 2.2069V5.17517L11.8356 3.5531L10.6476 4.72276L13.7298 7.75724C13.8874 7.91222 14.101 7.99927 14.3238 7.99927C14.5465 7.99927 14.7602 7.91222 14.9178 7.75724L18 4.72276L16.8119 3.5531L15.1644 5.17517Z" fill="#637381"/>
</svg>
